<?xml version="1.0"?>
<svg xmlns="http://www.w3.org/2000/svg" height="512px" viewBox="0 -4 512 512" width="512px"><g transform="matrix(0.190462 -4.66497e-17 4.66497e-17 0.190462 207.242 204.004)"><path d="m277 28.5c0 11.597656-9.402344 21-21 21s-21-9.402344-21-21 9.402344-21 21-21 21 9.402344 21 21zm0 0" fill="#76ffd9" data-original="#76FFD9"/><path d="m504.5 241.457031v234.960938c0 11.039062-8.949219 20-20 20h-457c-11.050781 0-20-8.960938-20-20v-234.960938c0-11.039062 8.949219-20 20-20h457c11.050781 0 20 8.960938 20 20zm0 0" fill="#ffc843" data-original="#FFC843"/><path d="m37.5 251.457031h437v214.960938h-437zm0 0" fill="#fff" data-original="#FFF"/><path d="m331.058594 226.359375c0 42.054687-34.09375 76.148437-76.148438 76.148437-42.054687 0-76.148437-34.09375-76.148437-76.148437 0-42.058594 34.09375-76.148437 76.148437-76.148437 42.054688 0 76.148438 34.089843 76.148438 76.148437zm0 0" fill="#fff" data-original="#FFF"/><path d="m484.5 213.957031h-29.753906c-.21875-.339843-.460938-.671875-.738282-.980469l-169.347656-187.1875c-.101562-.113281-.214844-.21875-.324218-.324218-1.519532-14.292969-13.648438-25.464844-28.335938-25.464844s-26.816406 11.171875-28.335938 25.464844c-.109374.105468-.222656.210937-.324218.324218l-169.347656 187.1875c-.277344.308594-.519532.640626-.738282.980469h-29.753906c-15.1875 0-27.5 12.3125-27.5 27.5v234.957031c0 15.1875 12.3125 27.5 27.5 27.5h457c15.1875 0 27.5-12.3125 27.5-27.5v-234.957031c0-15.1875-12.3125-27.5-27.5-27.5zm-230.257812-198.84375c8.820312-1.121093 16.265624 6.328125 15.144531 15.148438-.765625 6.011719-5.617188 10.863281-11.628907 11.625-8.820312 1.121093-16.269531-6.328125-15.144531-15.148438.765625-6.011719 5.617188-10.863281 11.628907-11.625zm-22.558594 28.234375c5.011718 8.179688 14.039062 13.652344 24.316406 13.652344s19.304688-5.472656 24.316406-13.652344l154.347656 170.609375h-97.027343c-2.023438-13.710937-7.402344-26.621093-15.875-37.871093-2.546875-3.386719-7.40625-4-10.726563-1.304688-3.1875 2.589844-3.488281 7.324219-1.035156 10.621094 8.871094 11.90625 13.554688 26.058594 13.558594 40.949218 0 37.503907-30.648438 68.382813-68.152344 68.652344-38.078125.273438-69.144531-30.625-69.144531-68.644531 0-37.855469 30.792969-68.648437 68.644531-68.648437 10.734375 0 21.023438 2.421874 30.59375 7.195312 3.660156 1.832031 8.257812.679688 10.238281-2.90625 2.070313-3.742188.605469-8.421875-3.175781-10.328125-11.773438-5.945313-24.441406-8.960937-37.65625-8.960937-41.910156 0-76.710938 30.984374-82.722656 71.246093h-94.851563zm265.316406 433.066406c0 6.902344-5.597656 12.5-12.5 12.5h-457c-6.902344 0-12.5-5.597656-12.5-12.5v-234.957031c0-6.902343 5.597656-12.5 12.5-12.5h143.828125c0 .050781.003906.105469.003906.15625.230469 7.085938 1.570313 14.089844 3.707031 20.851563l.898438 2.851562c2.335938 7.394532 5.632812 14.472656 10.027344 20.859375 15.097656 21.925781 40.371094 36.332031 68.945312 36.332031 28.578125 0 53.851563-14.40625 68.945313-36.332031 4.398437-6.386719 7.691406-13.464843 10.027343-20.859375l.902344-2.851562c2.132813-6.761719 3.472656-13.769532 3.703125-20.851563l.003907-.15625h146.007812c6.902344 0 12.5 5.597657 12.5 12.5zm0 0" fill="#474d54" data-original="#474D54"/><g fill="#c2c7d0"><path d="m129.769531 424.78125h27.003907c8.8125 0 15.980468-7.171875 15.980468-15.984375v-62.378906c0-8.8125-7.167968-15.980469-15.980468-15.980469h-27.003907c-8.8125 0-15.980469 7.167969-15.980469 15.980469v62.378906c0 8.8125 7.171876 15.984375 15.980469 15.984375zm-.980469-78.363281c0-.539063.441407-.980469.980469-.980469h27.003907c.542968 0 .980468.441406.980468.980469v62.378906c0 .542969-.4375.984375-.980468.984375h-27.003907c-.539062 0-.980469-.441406-.980469-.984375zm0 0" data-original="#000000" class="active-path" style="fill:#000000"/><path d="m196.441406 424.78125c4.144532 0 7.5-3.359375 7.5-7.5v-37.066406h27.984375c8.8125 0 15.980469-7.171875 15.980469-15.984375v-17.8125c0-8.8125-7.171875-15.980469-15.980469-15.980469h-35.484375c-4.144531 0-7.5 3.359375-7.5 7.5v79.34375c0 4.140625 3.359375 7.5 7.5 7.5zm7.5-79.34375h27.984375c.539063 0 .980469.441406.980469.980469v17.8125c0 .542969-.441406.984375-.980469.984375h-27.984375zm0 0" data-original="#000000" class="active-path" style="fill:#000000"/><path d="m280.074219 424.78125h35.484375c4.140625 0 7.5-3.359375 7.5-7.5 0-4.144531-3.359375-7.5-7.5-7.5h-35.484375c-.542969 0-.980469-.441406-.980469-.984375v-23.6875h25.996094c4.140625 0 7.5-3.359375 7.5-7.5s-3.359375-7.5-7.5-7.5h-25.996094v-23.6875c0-.542969.4375-.984375.980469-.984375h35.484375c4.140625 0 7.5-3.359375 7.5-7.5s-3.359375-7.5-7.5-7.5h-35.484375c-8.8125 0-15.980469 7.171875-15.980469 15.984375v62.378906c0 8.808594 7.167969 15.980469 15.980469 15.980469zm0 0" data-original="#000000" class="active-path" style="fill:#000000"/><path d="m390.710938 330.4375c-4.144532 0-7.5 3.359375-7.5 7.5v50.335938l-29.90625-53.972657c-1.65625-2.988281-5.128907-4.480469-8.4375-3.625-3.3125.855469-5.625 3.84375-5.625 7.261719v79.34375c0 4.140625 3.359374 7.5 7.5 7.5 4.144531 0 7.5-3.359375 7.5-7.5v-50.335938l29.90625 53.96875c1.347656 2.429688 3.882812 3.867188 6.5625 3.867188.621093 0 1.253906-.078125 1.878906-.238281 3.308594-.855469 5.621094-3.84375 5.621094-7.261719v-79.34375c0-4.140625-3.355469-7.5-7.5-7.5zm0 0" data-original="#000000" class="active-path" style="fill:#000000"/></g><path d="m230.273438 203.324219c-17.96875 17.96875-21.226563 42.867187-7.414063 56.679687 5.636719 5.632813 13.304687 8.359375 21.613281 8.359375 11.726563 0 24.726563-5.429687 35.070313-15.773437 8.25-8.25 13.703125-18.4375 15.351562-28.683594 1.792969-11.144531-1.023437-21.085938-7.9375-28-13.8125-13.808594-38.710937-10.554688-56.683593 7.417969zm10.609374 10.605469c8.769532-8.773438 20.175782-12.851563 28.507813-11.0625l-39.570313 39.570312c-1.789062-8.335938 2.292969-19.738281 11.0625-28.507812zm39.203126 7.59375c-1.152344 7.15625-5.109376 14.421874-11.148438 20.460937-8.773438 8.773437-20.175781 12.851563-28.507812 11.0625l39.550781-39.554687c.515625 2.414062.574219 5.113281.105469 8.03125zm0 0" fill="#474d54" data-original="#474D54"/></g> </svg>
