<?xml version="1.0"?>
<svg xmlns="http://www.w3.org/2000/svg" height="512px" viewBox="0 -6 480 479" width="512px"><g transform="matrix(0.219238 0 0 0.219238 187.383 182.308)"><path d="m264 24.5c.027344 6.113281-2.324219 11.996094-6.558594 16.398438-5.761718-.238282-11.519531-.398438-17.441406-.398438s-11.679688.160156-17.441406.398438c-4.234375-4.402344-6.585938-10.285157-6.558594-16.398438 0-13.253906 10.746094-24 24-24s24 10.746094 24 24zm0 0" fill="#ff9811" data-original="#FF9811"/><path d="m360 319.460938 77.199219-44.5625c7.429687-4.285157 16.582031-4.285157 24.007812.003906 7.425781 4.292968 12 12.21875 11.992188 20.796875.035156 8.589843-4.546875 16.53125-12 20.800781l-173.199219 100h-97.199219l-4.082031 1.519531-31.839844-87.519531 61.121094-34h120c6.363281 0 12.46875 2.53125 16.960938 7.039062 2.5 2.464844 4.390624 5.476563 5.519531 8.800782.871093 2.28125 1.382812 4.683594 1.519531 7.121094zm0 0" fill="#ffc477" data-original="#FFC477"/><path d="m336 352.5h-88v-16h88c8.835938 0 16-7.164062 16-16 .03125-1.761719-.289062-3.511719-.9375-5.152344-.742188-2.320312-2.03125-4.433594-3.757812-6.152344-2.988282-3.015624-7.058594-4.707031-11.304688-4.695312h-117.929688l-81.65625 45.433594-7.78125-13.984375 83.480469-46.402344c1.183594-.675781 2.523438-1.035156 3.886719-1.046875h120c8.488281-.019531 16.632812 3.359375 22.617188 9.382812 3.382812 3.339844 5.9375 7.425782 7.453124 11.929688 1.316407 3.40625 1.96875 7.035156 1.929688 10.6875 0 17.671875-14.328125 32-32 32zm0 0" fill="#ffb655" data-original="#FFB655"/><path d="m440 192.5h-400c0-96.238281 78.960938-146.558594 182.558594-151.601562 5.761718-.238282 11.519531-.398438 17.441406-.398438s11.679688.160156 17.441406.398438c103.597656 5.042968 182.558594 55.363281 182.558594 151.601562zm0 0" fill="#96c8ef" data-original="#96C8EF"/><path d="m440 192.5h8l-28.800781 38.398438c-12.09375 16.109374-31.058594 25.589843-51.199219 25.601562h-256c-20.140625-.011719-39.105469-9.492188-51.199219-25.601562l-28.800781-38.398438zm0 0" fill="#3d9ae2" data-original="#3D9AE2"/><path d="m377.601562 133.460938c-13.730468-17.132813-31.847656-30.21875-52.425781-37.863282l5.914063-14.867187c23.253906 8.691406 43.714844 23.535156 59.199218 42.945312zm0 0" fill="#bddbff" data-original="#BDDBFF"/><path d="m393.871094 163.898438c-1.804688-5.300782-4.023438-10.449219-6.632813-15.40625l14.160157-7.464844c2.992187 5.695312 5.535156 11.609375 7.617187 17.695312zm0 0" fill="#bddbff" data-original="#BDDBFF"/><path d="m0 184.5h480v16h-480zm0 0" fill="#1e81ce" data-original="#1E81CE"/><path d="m48 48.5h-16v16h-16v16h16v16h16v-16h16v-16h-16zm0 0" fill="#ee8700" data-original="#EE8700"/><path d="m456 16.5h-16v-16h-16v16h-16v16h16v16h16v-16h16zm0 0" fill="#ee8700" data-original="#EE8700"/><path d="m111.359375 444.820312-60.160156 21.917969-38.320313-105.277343 60.160156-21.839844zm0 0" fill="#ff5023" data-original="#FF5023"/><path d="m186.71875 418.019531 5.28125 14.480469-75.199219 27.359375-5.441406-15.039063-38.320313-105.199218-5.4375-15.042969 75.117188-27.359375 12.160156 33.28125zm0 0" fill="#ed1c24" data-original="#ED1C24" class="active-path" style="fill:#ED1C24" data-old_color="#ed1c24"/></g> </svg>
