<?xml version="1.0"?>
<svg xmlns="http://www.w3.org/2000/svg" xmlns:xlink="http://www.w3.org/1999/xlink" version="1.1" id="Layer_1" x="0px" y="0px" viewBox="0 0 512 512" style="enable-background:new 0 0 512 512;" xml:space="preserve" width="512px" height="512px" class=""><g transform="matrix(0.119885 0 0 0.119885 225.309 225.309)"><g>
	<g>
		<path d="M439.026,0H72.975C32.737,0,0,32.737,0,72.975v366.05C0,479.264,32.737,512,72.975,512h366.05    C479.264,512,512,479.264,512,439.026V72.975C512,32.737,479.264,0,439.026,0z M470.636,439.025    c0,17.43-14.181,31.611-31.61,31.611H72.975c-17.43,0-31.611-14.181-31.611-31.61V72.975c0-17.43,14.181-31.611,31.611-31.611    h366.05c17.43,0,31.611,14.181,31.611,31.611V439.025z" data-original="#000000" class="active-path" fill="#000000"/>
	</g>
</g></g> </svg>
