<?xml version="1.0" encoding="utf-8"?>
<!-- Generator: Adobe Illustrator 22.0.1, SVG Export Plug-In . SVG Version: 6.00 Build 0)  -->
<svg version="1.1" id="Layer_1" xmlns="http://www.w3.org/2000/svg" xmlns:xlink="http://www.w3.org/1999/xlink" x="0px" y="0px"
	 viewBox="0 0 512 512" style="enable-background:new 0 0 512 512;" xml:space="preserve">
<style type="text/css">
	.st0{fill:#F86E51;}
	.st1{fill:#E04332;}
	.st2{fill:#662621;}
	.st3{fill:#935733;}
	.st4{fill:#591F1C;}
	.st5{fill:#7C4529;}
	.st6{fill:#E8A89E;}
</style>
<g transform="matrix(0.373465 0 0 0.373465 93.0405 93.0405)">
	<g>
		<g>
			<g>
				<circle class="st0" cx="436.3" cy="436.3" r="256"/>
			</g>
		</g>
		<path class="st1" d="M691.6,417.4L559.3,285L274.1,563.8l125.9,126c11.9,1.7,24,2.6,36.3,2.6c141.4,0,256-114.6,256-256
			C692.3,430,692.1,423.6,691.6,417.4z"/>
		<g>
			<path class="st2" d="M550.1,294.1c-46.3-49.1-136.8-40.5-145.5,30.5c-9.8,79.5-48,101.4-107.3,124.9
				c-63.7,25.2-46.4,141.2,80.2,134.1C542.7,574.3,688.9,441.5,550.1,294.1z"/>
			<path class="st3" d="M366.3,596.8c-73.1,0-108.2-40-116.1-75.8c-8-36.2,9.4-70.6,42.3-83.6c55.7-22.1,90.2-40.8,99.3-114.5
				c4.1-33,24.2-57.8,55.4-68c38.4-12.5,83.5-0.4,112.4,30.3c69.5,73.8,65.1,137,49.1,177c-14.8,37-45.4,69.5-88.7,94
				c-40.9,23.1-91.2,37.4-141.7,40.3C374.2,596.7,370.2,596.8,366.3,596.8z M478.1,276c-7.8,0-15.6,1.1-22.9,3.5
				c-21.5,7-34.9,23.6-37.7,46.6c-5,40.4-17.3,69.3-38.7,91c-19,19.2-43.5,31.2-76.7,44.4c-24.4,9.7-30.9,34.1-26.5,54
				c6.1,27.7,36.3,58.8,101.3,55.2c96.9-5.5,182.3-54,207.9-118c18.9-47.3,3.7-99.1-44-149.7C524.5,285.8,500.9,276,478.1,276z"/>
		</g>
		<g>
			<path class="st4" d="M550.1,294.1c-31.2-33.1-82.4-40-115.2-19.2v300.4C573.3,542.6,672.4,424,550.1,294.1z"/>
			<path class="st5" d="M559.5,285.3c-28.9-30.7-74-42.8-112.4-30.3c-4.3,1.4-8.4,3.1-12.2,5.1v31c5.6-5,12.4-8.9,20.3-11.5
				c7.3-2.4,15-3.5,22.9-3.5c22.8,0,46.4,9.7,62.6,27c47.6,50.6,62.8,102.3,44,149.7c-20.3,50.8-78.3,91.8-149.8,109.3v26.5
				c30.5-6.9,59.6-17.9,85-32.3c43.3-24.5,74-57,88.7-94C624.6,422.3,629.1,359.1,559.5,285.3z"/>
		</g>
		<g>
			<circle class="st6" cx="489.4" cy="364.9" r="32.7"/>
		</g>
	</g>
</g>
</svg>
